<svg width="18" height="18" viewBox="0 0 18 18" fill="none" xmlns="http://www.w3.org/2000/svg">
<path d="M17.7804 9.53027L13.844 13.4678C13.7391 13.5727 13.6054 13.6441 13.4599 13.6731C13.3144 13.7021 13.1636 13.6872 13.0266 13.6305C12.8895 13.5737 12.7724 13.4776 12.6899 13.3542C12.6075 13.2309 12.5635 13.0859 12.5635 12.9375V9.75H6.75C6.55109 9.75 6.36032 9.67098 6.21967 9.53033C6.07902 9.38968 6 9.19891 6 9C6 8.80109 6.07902 8.61032 6.21967 8.46967C6.36032 8.32902 6.55109 8.25 6.75 8.25H12.5635V5.0625C12.5635 4.91415 12.6075 4.76913 12.6899 4.64578C12.7724 4.52244 12.8895 4.4263 13.0266 4.36954C13.1636 4.31278 13.3144 4.29794 13.4599 4.3269C13.6054 4.35585 13.7391 4.42731 13.844 4.53223L17.7804 8.46973C17.921 8.61037 18 8.80111 18 9C18 9.19889 17.921 9.38963 17.7804 9.53027V9.53027ZM6.75 16.5H1.5V1.5H6.75C6.94891 1.5 7.13968 1.42098 7.28033 1.28033C7.42098 1.13968 7.5 0.948912 7.5 0.75C7.5 0.551088 7.42098 0.360322 7.28033 0.21967C7.13968 0.0790178 6.94891 0 6.75 0H1.5C1.10231 0.000454817 0.721048 0.158636 0.439842 0.439842C0.158636 0.721048 0.000454817 1.10231 0 1.5V16.5C0.000454817 16.8977 0.158636 17.279 0.439842 17.5602C0.721048 17.8414 1.10231 17.9995 1.5 18H6.75C6.94891 18 7.13968 17.921 7.28033 17.7803C7.42098 17.6397 7.5 17.4489 7.5 17.25C7.5 17.0511 7.42098 16.8603 7.28033 16.7197C7.13968 16.579 6.94891 16.5 6.75 16.5Z" fill="white"/>
</svg>
