<svg width="32" height="32" viewBox="0 0 32 32" fill="none" xmlns="http://www.w3.org/2000/svg">
<path d="M13.184 13.424C12.272 13.424 11.552 14.224 11.552 15.2C11.552 16.176 12.288 16.976 13.184 16.976C14.096 16.976 14.816 16.176 14.816 15.2C14.832 14.224 14.096 13.424 13.184 13.424ZM19.024 13.424C18.112 13.424 17.392 14.224 17.392 15.2C17.392 16.176 18.128 16.976 19.024 16.976C19.936 16.976 20.656 16.176 20.656 15.2C20.656 14.224 19.936 13.424 19.024 13.424Z" fill="white"/>
<path d="M26.8 0H5.36002C3.55202 0 2.08002 1.472 2.08002 3.296V24.928C2.08002 26.752 3.55202 28.224 5.36002 28.224H23.504L22.656 25.264L24.704 27.168L26.64 28.96L30.08 32V3.296C30.08 1.472 28.608 0 26.8 0ZM20.624 20.896C20.624 20.896 20.048 20.208 19.568 19.6C21.664 19.008 22.464 17.696 22.464 17.696C21.808 18.128 21.184 18.432 20.624 18.64C19.824 18.976 19.056 19.2 18.304 19.328C16.768 19.616 15.36 19.536 14.16 19.312C13.248 19.136 12.464 18.88 11.808 18.624C11.44 18.48 11.04 18.304 10.64 18.08C10.592 18.048 10.544 18.032 10.496 18C10.464 17.984 10.448 17.968 10.432 17.952C10.144 17.792 9.98402 17.68 9.98402 17.68C9.98402 17.68 10.752 18.96 12.784 19.568C12.304 20.176 11.712 20.896 11.712 20.896C8.17602 20.784 6.83202 18.464 6.83202 18.464C6.83202 13.312 9.13602 9.136 9.13602 9.136C11.44 7.408 13.632 7.456 13.632 7.456L13.792 7.648C10.912 8.48 9.58402 9.744 9.58402 9.744C9.58402 9.744 9.93602 9.552 10.528 9.28C12.24 8.528 13.6 8.32 14.16 8.272C14.256 8.256 14.336 8.24 14.432 8.24C15.408 8.112 16.512 8.08 17.664 8.208C19.184 8.384 20.816 8.832 22.48 9.744C22.48 9.744 21.216 8.544 18.496 7.712L18.72 7.456C18.72 7.456 20.912 7.408 23.216 9.136C23.216 9.136 25.52 13.312 25.52 18.464C25.52 18.464 24.16 20.784 20.624 20.896V20.896Z" fill="white"/>
</svg>
