<svg width="32" height="32" viewBox="0 0 32 32" fill="none" xmlns="http://www.w3.org/2000/svg">
<path d="M9.78534 13.4467L15.9997 7.23248L22.2173 13.4499L25.8333 9.83392L15.9997 0L6.1695 9.83072L9.78534 13.4467ZM0 15.9995L3.61611 12.3834L7.23198 15.9993L3.6159 19.6154L0 15.9995ZM9.78534 18.5533L15.9997 24.7675L22.2172 18.5502L25.8351 22.1643L25.8333 22.1662L15.9997 32L6.16918 22.1696L6.16406 22.1645L9.78534 18.5533ZM24.7681 16.0015L28.3842 12.3854L32.0001 16.0013L28.384 19.6174L24.7681 16.0015Z" fill="white"/>
<path d="M19.6673 15.9981H19.6689L15.9997 12.3289L13.288 15.0405H13.2878L12.9763 15.3522L12.3337 15.9949L12.3286 15.9999L12.3337 16.0052L15.9997 19.6713L19.6689 16.002L19.6707 15.9999L19.6673 15.9981Z" fill="white"/>
</svg>
